<svg width="256" height="256" xmlns="http://www.w3.org/2000/svg" xmlns:svg="http://www.w3.org/2000/svg" preserveAspectRatio="xMidYMid">
    <g>
        <title>Layer 1</title>
        <g fill-rule="evenodd" id="svg_1" transform="rotate(-93.19670867919922 127.99999999999997,128) ">
            <path d="m127.58576,0c71.24919,0 128.41424,57.16505 128.41424,127.58576c0,71.24919 -57.16505,128.41424 -128.41424,128.41424c-70.42071,0 -127.58576,-57.16505 -127.58576,-128.41424c0,-70.42071 57.16505,-127.58576 127.58576,-127.58576l0,0zm31.4822,152.44013c-14.08414,18.22654 -39.76699,21.54045 -57.16505,7.45631c-17.39806,-13.25566 -19.88349,-38.93851 -5.79935,-57.16505c14.91262,-17.39806 40.59547,-20.71197 57.99353,-7.45631c17.39806,14.08414 19.88349,39.76699 4.97087,57.16505l0,0zm-67.93527,83.67637l48.88026,-47.2233c-18.22654,4.1424 -37.28156,0.82848 -52.19418,-11.5987c-17.39806,-13.25566 -24.85437,-35.6246 -22.36893,-56.33657l-43.90939,48.05178c0,0 -5.79935,-10.77023 -7.45631,-30.65372l77.04855,-60.47897c23.19741,-16.56958 54.67961,-17.39806 77.04854,0c24.85437,19.8835 29.82524,56.33657 11.5987,83.67638l-56.33656,80.36246c-8.28479,0 -24.85437,-2.48544 -32.31068,-5.79936l0,0z" fill="#ffffff" id="svg_2"/>
        </g>
    </g>
</svg>